<svg xmlns="http://www.w3.org/2000/svg" width="32" height="32" viewBox="0 0 32 32"><defs><linearGradient id="a" x1="6" x2="235" y1="33" y2="344" gradientTransform="translate(1.34 1.894) scale(.07142)" gradientUnits="userSpaceOnUse"><stop offset="0" stop-color="#41d1ff"/><stop offset="1" stop-color="#bd34fe"/></linearGradient><linearGradient id="b" x1="194.651" x2="236.076" y1="8.818" y2="292.989" gradientTransform="translate(1.34 1.894) scale(.07142)" gradientUnits="userSpaceOnUse"><stop offset="0" stop-color="#ffea83"/><stop offset=".083" stop-color="#ffdd35"/><stop offset="1" stop-color="#ffa800"/></linearGradient></defs><path fill="url(#a)" d="M29.884 6.146L17.409 25.542a1.419 1.419 0 0 1-2.445.042L2.096 6.143a1.034 1.034 0 0 1 .896-1.556h26.034a1.034 1.034 0 0 1 .858 1.559Z"/><path fill="url(#b)" d="M22.264 2.007L12.54 3.912a.357.357 0 0 0-.288.33l-.598 10.104a.357.357 0 0 0 .437.369l2.707-.702a.357.357 0 0 1 .43.42l-.804 3.939a.357.357 0 0 0 .454.413l1.672-.508a.357.357 0 0 1 .454.414l-1.279 6.187c-.08.387.435.598.65.267l.143-.222 7.925-15.815a.357.357 0 0 0-.387-.51l-2.787.537a.357.357 0 0 1-.41-.45l1.818-6.306a.357.357 0 0 0-.412-.46Z"/></svg>

